<svg id="theme_number_2" viewBox="0 0 389 588" fill="#ffffff" xmlns="http://www.w3.org/2000/svg">
<path d="M5.93802 488.04C24.418 469.56 60.258 433.72 113.458 380.52C166.658 327.88 200.818 293.44 215.938 277.2C236.098 254.8 249.818 236.6 257.098 222.6C264.938 208.04 268.858 191.52 268.858 173.04C268.858 154 261.298 137.76 246.178 124.32C231.618 110.32 212.298 103.32 188.218 103.32C165.258 103.32 146.218 110.04 131.098 123.48C116.538 136.92 106.458 153.72 100.858 173.88L0.898022 132.72C7.05802 110.88 18.258 89.88 34.498 69.72C51.298 49 72.858 32.2 99.178 19.32C125.498 6.43996 155.738 -4.00543e-05 189.898 -4.00543e-05C227.978 -4.00543e-05 261.298 7.55996 289.858 22.68C318.418 37.24 340.538 57.4 356.218 83.16C371.898 108.36 379.738 136.64 379.738 168C379.738 230.16 349.498 290.92 289.018 350.28C278.938 360.36 267.738 371.56 255.418 383.88C243.098 396.2 230.218 408.8 216.778 421.68L152.098 486.36L155.458 491.4H388.138V588H5.93802V488.04Z" />
</svg>
