<svg id="theme_number_5" viewBox="0 0 409 589" fill="#ffffff" xmlns="http://www.w3.org/2000/svg">
<path d="M204.588 588.44C158.108 588.44 115.548 575.28 76.9083 548.96C38.2683 522.08 12.7883 483.44 0.468334 433.04L100.428 394.4C107.148 422.96 119.188 445.64 136.548 462.44C154.468 478.68 176.868 486.8 203.748 486.8C230.628 486.8 253.028 477.84 270.948 459.92C289.428 442 298.668 419.32 298.668 391.88C298.668 365 289.708 342.6 271.788 324.68C253.868 306.2 231.188 296.96 203.748 296.96C186.948 296.96 171.548 300.6 157.548 307.88C144.108 314.6 132.628 323.84 123.108 335.6L16.4283 287.72L50.0283 0.439987H373.428V97.04H141.588L119.748 231.44L126.468 233.12C154.468 210.16 187.788 198.68 226.428 198.68C258.348 198.68 288.308 206.8 316.308 223.04C344.308 239.28 366.708 262.24 383.508 291.92C400.308 321.04 408.708 354.36 408.708 391.88C408.708 429.96 399.748 463.84 381.828 493.52C364.468 523.2 340.388 546.44 309.588 563.24C278.788 580.04 243.788 588.44 204.588 588.44Z" />
</svg>
