<svg id="theme_number_3" viewBox="0 0 407 602" fill="#dc0000" xmlns="http://www.w3.org/2000/svg">
<path d="M206.193 601.44C157.473 601.44 114.353 588.56 76.8333 562.8C39.8733 537.04 14.3933 499.52 0.393332 450.24L103.713 409.08C110.993 437.08 123.313 458.36 140.673 472.92C158.593 487.48 180.433 494.76 206.193 494.76C230.273 494.76 250.993 487.48 268.353 472.92C285.713 458.36 294.393 439.88 294.393 417.48C294.393 393.4 284.873 374.36 265.833 360.36C247.353 345.8 222.433 338.52 191.073 338.52H141.513V238.56H186.873C211.513 238.56 232.233 232.4 249.033 220.08C266.393 207.76 275.073 189.84 275.073 166.32C275.073 147.28 268.073 131.6 254.073 119.28C240.073 106.96 221.873 100.8 199.473 100.8C177.073 100.8 158.873 106.96 144.873 119.28C130.873 131.6 121.073 147 115.473 165.48L14.6733 124.32C26.9933 90.72 48.8333 61.6 80.1933 36.96C112.113 12.32 152.433 -4.00543e-05 201.153 -4.00543e-05C236.993 -4.00543e-05 268.913 6.71996 296.913 20.16C324.913 33.6 346.753 52.08 362.433 75.6C378.113 98.56 385.953 124.6 385.953 153.72C385.953 184.52 378.953 210.84 364.953 232.68C350.953 254.52 333.873 270.48 313.713 280.56V287.28C341.713 298.48 364.113 316.12 380.913 340.2C398.273 364.28 406.953 393.4 406.953 427.56C406.953 460.6 398.553 490.28 381.753 516.6C364.953 542.92 341.153 563.64 310.353 578.76C280.113 593.88 245.393 601.44 206.193 601.44Z" />
</svg>
